<?xml version="1.0" encoding="UTF-8" standalone="no"?>
<svg
   xmlns:dc="http://purl.org/dc/elements/1.1/"
   xmlns:cc="http://creativecommons.org/ns#"
   xmlns:rdf="http://www.w3.org/1999/02/22-rdf-syntax-ns#"
   xmlns:svg="http://www.w3.org/2000/svg"
   xmlns="http://www.w3.org/2000/svg"
   xmlns:sodipodi="http://sodipodi.sourceforge.net/DTD/sodipodi-0.dtd"
   xmlns:inkscape="http://www.inkscape.org/namespaces/inkscape"
   viewBox="0 0 24 24"
   version="1.1"
   id="svg4"
   sodipodi:docname="EasyMariaDB.svg"
   inkscape:version="1.0.2 (e86c870879, 2021-01-15, custom)">
  <metadata
     id="metadata10">
    <rdf:RDF>
      <cc:Work
         rdf:about="">
        <dc:format>image/svg+xml</dc:format>
        <dc:type
           rdf:resource="http://purl.org/dc/dcmitype/StillImage" />
        <dc:title></dc:title>
      </cc:Work>
    </rdf:RDF>
  </metadata>
  <defs
     id="defs8">
    <pattern
       id="EMFhbasepattern"
       patternUnits="userSpaceOnUse"
       width="6"
       height="6"
       x="0"
       y="0" />
  </defs>
  <sodipodi:namedview
     pagecolor="#ffffff"
     bordercolor="#666666"
     borderopacity="1"
     objecttolerance="10"
     gridtolerance="10"
     guidetolerance="10"
     inkscape:pageopacity="0"
     inkscape:pageshadow="2"
     inkscape:window-width="1680"
     inkscape:window-height="997"
     id="namedview6"
     showgrid="false"
     inkscape:zoom="15.920944"
     inkscape:cx="3.930798"
     inkscape:cy="8.9772246"
     inkscape:window-x="-8"
     inkscape:window-y="-8"
     inkscape:window-maximized="1"
     inkscape:current-layer="svg4" />
  <path
     fill="#6563ff"
     d="M 9.2712378,14.480955 A 0.67417133,0.67417133 0 1 0 9.9454095,15.155127 0.67417133,0.67417133 0 0 0 9.2712378,14.480955 Z M 11.967923,4.7054709 c -2.6966852,0 -5.3933705,0.9236147 -5.3933705,2.6966853 v 8.0900568 c 0,1.77307 2.6966853,2.696685 5.3933705,2.696685 2.696685,0 5.393372,-0.923615 5.393372,-2.696685 V 7.4021562 c 0,-1.7730706 -2.696687,-2.6966853 -5.393372,-2.6966853 z m 4.045028,10.7867421 c 0,0.47866 -1.53711,1.348342 -4.045028,1.348342 -2.5079172,0 -4.0450278,-0.869682 -4.0450278,-1.348342 v -2.204541 a 8.8720947,8.8720947 0 0 0 4.0450278,0.856197 8.8720947,8.8720947 0 0 0 4.045028,-0.856197 z m 0,-4.045029 c 0,0.478661 -1.53711,1.348342 -4.045028,1.348342 -2.5079172,0 -4.0450278,-0.869681 -4.0450278,-1.348342 v -2.20454 a 8.8720947,8.8720947 0 0 0 4.0450278,0.856198 8.8720947,8.8720947 0 0 0 4.045028,-0.856198 z M 11.967923,8.7504989 c -2.5079172,0 -4.0450278,-0.869681 -4.0450278,-1.3483427 0,-0.4786616 1.5371106,-1.3483426 4.0450278,-1.3483426 2.507918,0 4.045028,0.869681 4.045028,1.3483426 0,0.4786617 -1.53711,1.3483427 -4.045028,1.3483427 z M 9.2712378,10.435927 a 0.67417133,0.67417133 0 1 0 0.6741717,0.674172 0.67417133,0.67417133 0 0 0 -0.6741717,-0.674172 z"
     id="path2"
     style="stroke-width:0.674172" />
  <path
     style="fill:#6563ff;fill-opacity:1;fill-rule:evenodd;stroke:none;stroke-width:1.15185"
     d="m 4.3785133,11.467752 c 0,0.164541 -0.041133,0.32908 -0.1234047,0.49362 -0.1234046,0.164539 -0.2468093,0.329079 -0.41135,0.411349 -0.1645396,0.08226 -0.370214,0.123405 -0.5347536,0.123405 H 2.1983607 c -0.1645408,0 -0.3702152,-0.04113 -0.5347548,-0.123405 -0.1645407,-0.08227 -0.2879454,-0.24681 -0.3702151,-0.411349 -0.1234047,-0.16454 -0.1645396,-0.329079 -0.1645396,-0.49362 0,-0.205675 0.041133,-0.370215 0.1645396,-0.534754 0.082265,-0.16454 0.2056744,-0.32908 0.3702151,-0.41135 0.1645396,-0.08227 0.370214,-0.123405 0.5347548,-0.123405 H 3.309005 c 0.1645396,0 0.370214,0.04113 0.5347536,0.123405 0.1645407,0.08227 0.2879454,0.24681 0.41135,0.41135 0.082265,0.164539 0.1234047,0.329079 0.1234047,0.534754 z m -0.082265,6.170246 0.7815652,-0.781565 c 0.041133,-0.04113 0.1234047,-0.08226 0.1645396,-0.123405 0.1645396,-0.08226 0.3290791,-0.123404 0.5347547,-0.123404 0.1645396,0 0.370214,0.04113 0.5347548,0.123404 0.1645395,0.123405 0.3290791,0.24681 0.4113489,0.41135 0.082265,0.16454 0.1645407,0.329079 0.1645407,0.534755 0,0.205674 -0.082265,0.370214 -0.1645407,0.534755 -0.041133,0.08226 -0.082265,0.123404 -0.1234047,0.164539 l -0.7404292,0.781564 c -0.082265,0.08227 -0.1645395,0.123405 -0.2468093,0.164541 -0.1645407,0.08226 -0.3290803,0.16454 -0.5347548,0.16454 -0.2056756,0 -0.3702151,-0.08227 -0.5347547,-0.16454 -0.082265,-0.04113 -0.1645407,-0.08227 -0.2468105,-0.164541 -0.041133,-0.08227 -0.1234046,-0.123404 -0.1645395,-0.205674 -0.082265,-0.16454 -0.1234047,-0.370215 -0.1234047,-0.57589 0,-0.164539 0.041133,-0.370215 0.1234047,-0.534754 0.041133,-0.08227 0.1234046,-0.16454 0.1645395,-0.205675 z M 11.988498,3.8577822 c -0.205676,0 -0.370215,-0.041135 -0.534755,-0.1234049 C 11.289202,3.6109724 11.124661,3.4875675 11.042391,3.3230276 10.960121,3.1584877 10.918986,2.9528128 10.918986,2.788273 V 1.6776287 c 0,-0.1645399 0.04113,-0.3702148 0.123405,-0.5347547 0.08226,-0.16453986 0.246811,-0.28794477 0.411352,-0.37021471 0.16454,-0.12340493 0.329079,-0.1645399 0.534755,-0.1645399 0.164539,0 0.329079,0.041135 0.493618,0.1645399 0.164541,0.0822699 0.329081,0.20567485 0.41135,0.37021471 0.08227,0.1645399 0.123406,0.3702148 0.123406,0.5347547 V 2.788273 c 0,0.1645398 -0.04113,0.3702147 -0.123406,0.5347546 -0.08226,0.1645399 -0.246809,0.2879448 -0.41135,0.4113497 -0.164539,0.08227 -0.329079,0.1234049 -0.493618,0.1234049 z m 6.663865,2.3858285 c -0.16454,0.1234049 -0.370214,0.1645398 -0.57589,0.1645398 -0.16454,0 -0.329079,-0.041135 -0.493619,-0.1645398 -0.08226,-0.041135 -0.123405,-0.08227 -0.205675,-0.1645399 -0.08227,-0.041135 -0.123405,-0.1234049 -0.16454,-0.2056749 -0.08226,-0.16454 -0.164539,-0.3702148 -0.164539,-0.5347547 0,-0.2056749 0.08226,-0.3702148 0.164539,-0.5347546 0.04113,-0.08227 0.08226,-0.1645399 0.16454,-0.2468099 l 0.699294,-0.7815644 c 0.08228,-0.08227 0.205676,-0.1645399 0.287945,-0.2056749 0.16454,-0.1234049 0.370216,-0.1645399 0.534755,-0.1645399 0.205675,0 0.41135,0.041135 0.57589,0.1645399 0.164539,0.08227 0.287944,0.2056749 0.370215,0.3702148 0.123405,0.1645398 0.164539,0.3702147 0.164539,0.5758896 0,0.1645398 -0.04113,0.3702147 -0.164539,0.5347546 -0.04113,0.08227 -0.123406,0.2056748 -0.205676,0.2879448 l -0.781564,0.7404296 c -0.08226,0.08227 -0.164539,0.1234049 -0.205675,0.1645399 z M 5.1189436,6.0790708 4.2962435,5.3386412 C 4.2551109,5.2563715 4.1728388,5.1741013 4.131704,5.0918314 4.0494388,4.9272915 4.0082993,4.7627516 4.0082993,4.5570767 c 0,-0.2056748 0,-0.3702147 0.1234047,-0.5347546 0.082265,-0.1645399 0.2468093,-0.3290798 0.41135,-0.4113497 0.1645396,-0.08227 0.3290791,-0.1645399 0.5347547,-0.1645399 0.1645396,0 0.3702141,0.08227 0.5347548,0.1645399 0.1234046,0.041135 0.1645395,0.1234049 0.2468093,0.1645399 l 0.7815641,0.7815644 c 0.041133,0.08227 0.1234058,0.1645399 0.1645407,0.2468099 0.082265,0.1645398 0.1645396,0.3290797 0.1645396,0.5347546 0,0.1645399 -0.082265,0.3702147 -0.1645396,0.5347547 C 6.764345,5.9556656 6.6820718,6.0379358 6.6409369,6.0790708 6.5586717,6.1613405 6.4763973,6.2024757 6.3941275,6.2436107 6.229588,6.3670156 6.0650473,6.4081505 5.8593728,6.4081505 v 0 c -0.1645396,0 -0.3702152,-0.041135 -0.5347547,-0.1645398 C 5.2423529,6.2024758 5.1600785,6.1613409 5.1189436,6.0790708 Z M 21.737486,10.398243 c 0.16454,0 0.370214,0.04113 0.534755,0.123405 0.16454,0.08227 0.287944,0.24681 0.370214,0.41135 0.123406,0.164539 0.164541,0.329079 0.164541,0.534754 0,0.164541 -0.04113,0.32908 -0.164541,0.49362 -0.08227,0.164539 -0.205674,0.329079 -0.370214,0.411349 -0.164541,0.08226 -0.370215,0.123405 -0.534755,0.123405 h -1.110644 c -0.16454,0 -0.370215,-0.04113 -0.534755,-0.123405 -0.164539,-0.08227 -0.287945,-0.24681 -0.41135,-0.411349 -0.08226,-0.16454 -0.123404,-0.329079 -0.123404,-0.49362 0,-0.205675 0.04113,-0.370215 0.123404,-0.534754 0.123405,-0.16454 0.246811,-0.32908 0.41135,-0.41135 0.16454,-0.08227 0.370215,-0.123405 0.534755,-0.123405 z m -2.879448,6.45819 0.822699,0.699294 c 0.08226,0.08228 0.123405,0.164541 0.164541,0.246811 0.08226,0.164539 0.164539,0.329079 0.164539,0.534754 0,0.205675 -0.08227,0.370214 -0.164539,0.534755 -0.04113,0.08227 -0.08226,0.16454 -0.164541,0.246809 -0.08226,0.04113 -0.123404,0.123405 -0.205674,0.16454 -0.16454,0.08226 -0.370215,0.123406 -0.57589,0.123406 -0.164539,0 -0.370215,-0.04113 -0.534755,-0.123406 -0.08226,-0.04113 -0.164539,-0.123405 -0.205674,-0.16454 l -0.781565,-0.781564 c -0.08227,-0.164539 -0.123405,-0.32908 -0.123405,-0.534754 0,-0.205675 0.04113,-0.370215 0.123405,-0.534755 0.123404,-0.16454 0.24681,-0.287945 0.41135,-0.41135 0.164539,-0.08226 0.32908,-0.123405 0.534755,-0.123405 0.205674,0 0.370215,0.04113 0.534754,0.123405 z m -6.86954,2.180154 c 0.164539,0 0.329079,0.04113 0.493618,0.123404 0.164541,0.123405 0.329081,0.246811 0.41135,0.41135 0.08227,0.16454 0.123406,0.370216 0.123406,0.534755 v 1.110644 c 0,0.16454 -0.04113,0.370215 -0.123406,0.534755 -0.08226,0.16454 -0.246809,0.287944 -0.41135,0.370214 -0.164539,0.123406 -0.329079,0.164541 -0.493618,0.164541 -0.205676,0 -0.370215,-0.04113 -0.534755,-0.164541 -0.164541,-0.08226 -0.329082,-0.205674 -0.411352,-0.370214 -0.08226,-0.16454 -0.123405,-0.370215 -0.123405,-0.534755 v -1.110644 c 0,-0.164539 0.04113,-0.370215 0.123405,-0.534755 0.08226,-0.164539 0.246811,-0.287945 0.411352,-0.41135 0.16454,-0.08227 0.329079,-0.123404 0.534755,-0.123404 z"
     id="path849" />
</svg>
